<svg data-v-423bf9ae="" xmlns="http://www.w3.org/2000/svg" viewBox="0 0 460 90" class="iconLeftSlogan"><!----><!----><!----><g data-v-423bf9ae="" id="aac47437-e4d1-4803-8057-7a5c8fd1bea5" fill="#000000" transform="matrix(4.784689009770447,0,0,4.784689009770447,106.84210229274632,-10.382775993081829)"><path d="M5.33 12.46L5.33 12.46Q3.01 12.46 1.83 11.22L1.83 11.22L1.83 11.22Q0.66 9.98 0.66 7.49L0.66 7.49L0.66 7.49Q0.66 5.00 1.83 3.76L1.83 3.76L1.83 3.76Q3.01 2.52 5.33 2.52L5.33 2.52L5.33 2.52Q7.21 2.52 8.34 3.45L8.34 3.45L8.34 3.45Q9.46 4.38 9.46 6.16L9.46 6.16L8.11 6.16L8.11 6.16Q8.11 4.93 7.37 4.29L7.37 4.29L7.37 4.29Q6.64 3.65 5.33 3.65L5.33 3.65L5.33 3.65Q3.64 3.65 2.84 4.55L2.84 4.55L2.84 4.55Q2.04 5.45 2.03 7.46L2.03 7.46L2.03 7.49L2.03 7.49Q2.03 9.52 2.83 10.42L2.83 10.42L2.83 10.42Q3.63 11.33 5.33 11.33L5.33 11.33L5.33 11.33Q6.66 11.33 7.41 10.70L7.41 10.70L7.41 10.70Q8.16 10.07 8.16 8.85L8.16 8.85L9.46 8.85L9.46 8.85Q9.46 10.64 8.34 11.55L8.34 11.55L8.34 11.55Q7.22 12.46 5.33 12.46L5.33 12.46ZM11.21 12.29L11.21 2.69L15.85 2.69L15.85 2.69Q17.05 2.69 17.79 3.33L17.79 3.33L17.79 3.33Q18.52 3.98 18.52 5.04L18.52 5.04L18.52 5.04Q18.52 5.85 18.07 6.44L18.07 6.44L18.07 6.44Q17.63 7.03 16.93 7.25L16.93 7.25L16.93 7.31L16.93 7.31Q17.78 7.50 18.28 8.12L18.28 8.12L18.28 8.12Q18.79 8.74 18.79 9.74L18.79 9.74L18.79 9.74Q18.79 11.03 17.98 11.66L17.98 11.66L17.98 11.66Q17.18 12.29 15.85 12.29L15.85 12.29L11.21 12.29ZM12.54 6.79L15.58 6.79L15.58 6.79Q16.30 6.79 16.73 6.38L16.73 6.38L16.73 6.38Q17.16 5.96 17.16 5.31L17.16 5.31L17.16 5.31Q17.16 4.58 16.77 4.21L16.77 4.21L16.77 4.21Q16.38 3.85 15.69 3.85L15.69 3.85L12.54 3.85L12.54 6.79ZM12.54 11.13L15.82 11.13L15.82 11.13Q17.43 11.13 17.43 9.58L17.43 9.58L17.43 9.58Q17.43 7.95 15.72 7.95L15.72 7.95L12.54 7.95L12.54 11.13ZM23.06 12.29L23.06 3.85L19.75 3.85L19.75 2.69L27.69 2.69L27.69 3.85L24.39 3.85L24.39 12.29L23.06 12.29ZM36.54 12.46L36.54 12.46Q34.79 12.46 33.68 11.76L33.68 11.76L33.68 11.76Q32.58 11.06 32.58 9.58L32.58 9.58L32.59 9.30L33.91 9.30L33.91 9.30Q33.91 9.31 33.89 9.39L33.89 9.39L33.89 9.39Q33.88 9.48 33.88 9.59L33.88 9.59L33.88 9.59Q33.88 10.44 34.59 10.88L34.59 10.88L34.59 10.88Q35.29 11.33 36.47 11.33L36.47 11.33L36.47 11.33Q37.79 11.33 38.49 10.91L38.49 10.91L38.49 10.91Q39.19 10.50 39.19 9.73L39.19 9.73L39.19 9.73Q39.19 9.21 38.82 8.87L38.82 8.87L38.82 8.87Q38.46 8.53 37.91 8.33L37.91 8.33L37.91 8.33Q37.35 8.13 36.41 7.90L36.41 7.90L36.41 7.90Q35.25 7.60 34.54 7.33L34.54 7.33L34.54 7.33Q33.82 7.06 33.32 6.52L33.32 6.52L33.32 6.52Q32.82 5.98 32.82 5.10L32.82 5.10L32.82 5.10Q32.82 3.84 33.87 3.18L33.87 3.18L33.87 3.18Q34.92 2.52 36.55 2.52L36.55 2.52L36.55 2.52Q38.19 2.52 39.21 3.19L39.21 3.19L39.21 3.19Q40.24 3.85 40.24 5.22L40.24 5.22L40.24 5.39L38.93 5.39L38.93 5.18L38.93 5.18Q38.93 4.47 38.28 4.06L38.28 4.06L38.28 4.06Q37.63 3.65 36.60 3.65L36.60 3.65L36.60 3.65Q35.49 3.65 34.83 3.99L34.83 3.99L34.83 3.99Q34.16 4.33 34.16 5.00L34.16 5.00L34.16 5.00Q34.16 5.49 34.52 5.80L34.52 5.80L34.52 5.80Q34.87 6.10 35.40 6.29L35.40 6.29L35.40 6.29Q35.92 6.48 36.86 6.72L36.86 6.72L36.86 6.72Q38.02 7.01 38.76 7.29L38.76 7.29L38.76 7.29Q39.49 7.57 40.00 8.11L40.00 8.11L40.00 8.11Q40.52 8.65 40.52 9.52L40.52 9.52L40.52 9.52Q40.52 11.06 39.45 11.76L39.45 11.76L39.45 11.76Q38.37 12.46 36.54 12.46L36.54 12.46ZM42.17 3.54L42.17 2.17L43.40 2.17L43.40 3.54L42.17 3.54ZM42.17 12.29L42.17 4.93L43.40 4.93L43.40 12.29L42.17 12.29ZM45.28 12.29L45.28 4.93L46.21 4.93L46.35 5.92L46.45 5.92L46.45 5.92Q47.21 4.76 48.66 4.76L48.66 4.76L48.66 4.76Q50.09 4.76 50.57 5.92L50.57 5.92L50.65 5.92L50.65 5.92Q51.03 5.36 51.64 5.06L51.64 5.06L51.64 5.06Q52.25 4.76 52.93 4.76L52.93 4.76L52.93 4.76Q55.10 4.76 55.10 6.99L55.10 6.99L55.10 12.29L53.87 12.29L53.87 7.21L53.87 7.21Q53.87 6.41 53.52 6.10L53.52 6.10L53.52 6.10Q53.17 5.78 52.56 5.78L52.56 5.78L52.56 5.78Q51.81 5.78 51.31 6.37L51.31 6.37L51.31 6.37Q50.81 6.96 50.81 7.94L50.81 7.94L50.81 12.29L49.57 12.29L49.57 7.21L49.57 7.21Q49.57 6.41 49.24 6.10L49.24 6.10L49.24 6.10Q48.90 5.78 48.29 5.78L48.29 5.78L48.29 5.78Q47.81 5.78 47.40 6.04L47.40 6.04L47.40 6.04Q47.00 6.30 46.75 6.79L46.75 6.79L46.75 6.79Q46.51 7.28 46.51 7.94L46.51 7.94L46.51 12.29L45.28 12.29ZM56.94 14.71L56.94 4.93L57.86 4.93L58.02 5.92L58.10 5.92L58.10 5.92Q58.46 5.35 59.06 5.05L59.06 5.05L59.06 5.05Q59.65 4.76 60.38 4.76L60.38 4.76L60.38 4.76Q61.78 4.76 62.54 5.70L62.54 5.70L62.54 5.70Q63.29 6.64 63.29 8.61L63.29 8.61L63.29 8.61Q63.29 10.54 62.55 11.50L62.55 11.50L62.55 11.50Q61.80 12.46 60.49 12.46L60.49 12.46L60.49 12.46Q59.71 12.46 59.16 12.22L59.16 12.22L59.16 12.22Q58.62 11.98 58.25 11.45L58.25 11.45L58.17 11.45L58.17 14.71L56.94 14.71ZM60.07 11.44L60.07 11.44Q60.79 11.44 61.21 11.17L61.21 11.17L61.21 11.17Q61.63 10.91 61.82 10.30L61.82 10.30L61.82 10.30Q62.02 9.70 62.02 8.67L62.02 8.67L62.02 8.61L62.02 8.61Q62.02 7.56 61.82 6.94L61.82 6.94L61.82 6.94Q61.63 6.33 61.20 6.05L61.20 6.05L61.20 6.05Q60.77 5.78 60.07 5.78L60.07 5.78L60.07 5.78Q59.09 5.78 58.63 6.50L58.63 6.50L58.63 6.50Q58.17 7.21 58.17 8.61L58.17 8.61L58.17 8.67L58.17 8.67Q58.17 10.04 58.63 10.74L58.63 10.74L58.63 10.74Q59.08 11.44 60.07 11.44L60.07 11.44ZM67.84 12.46L67.84 12.46Q66.07 12.46 65.20 11.52L65.20 11.52L65.20 11.52Q64.33 10.58 64.33 8.61L64.33 8.61L64.33 8.61Q64.33 6.64 65.20 5.70L65.20 5.70L65.20 5.70Q66.07 4.76 67.84 4.76L67.84 4.76L67.84 4.76Q69.44 4.76 70.23 5.61L70.23 5.61L70.23 5.61Q71.02 6.45 71.02 8.33L71.02 8.33L71.02 8.95L65.60 8.95L65.60 8.95Q65.67 10.22 66.21 10.83L66.21 10.83L66.21 10.83Q66.75 11.44 67.84 11.44L67.84 11.44L67.84 11.44Q68.73 11.44 69.27 11.03L69.27 11.03L69.27 11.03Q69.82 10.63 69.82 9.79L69.82 9.79L71.02 9.79L71.02 9.79Q71.02 11.07 70.13 11.77L70.13 11.77L70.13 11.77Q69.24 12.46 67.84 12.46L67.84 12.46ZM65.63 7.92L69.73 7.92L69.73 7.92Q69.73 5.78 67.84 5.78L67.84 5.78L67.84 5.78Q66.79 5.78 66.27 6.29L66.27 6.29L66.27 6.29Q65.74 6.79 65.63 7.92L65.63 7.92ZM72.51 12.29L72.51 2.17L73.74 2.17L73.74 12.29L72.51 12.29Z"></path></g><defs data-v-423bf9ae=""><linearGradient data-v-423bf9ae="" gradientTransform="rotate(25)" id="ab6ed8d8-f567-43fd-b62e-f609ca4be769" x1="0%" y1="0%" x2="100%" y2="0%"><stop data-v-423bf9ae="" offset="0%" style="stop-color: rgb(65, 226, 150); stop-opacity: 1;"></stop><stop data-v-423bf9ae="" offset="100%" style="stop-color: rgb(0, 196, 238); stop-opacity: 1;"></stop></linearGradient></defs><g data-v-423bf9ae="" id="447e87d1-08aa-4aed-8c30-c6dcf21e9645" transform="matrix(2.8125,0,0,2.8125,0,0)" stroke="none" fill="url(#ab6ed8d8-f567-43fd-b62e-f609ca4be769)"><path d="M29.625 1l-3.099 3.172H4.054v23.657h22.472L29.625 31H1V1h28.625M32 0H0v32h32l-5.054-5.172H5.054V5.172h21.893L32 0z"></path><path d="M21.038 10.962v10.076H10.962V10.962h10.076m1-1H9.962v12.076h12.076V9.962z"></path></g><!----><g data-v-423bf9ae="" id="676b30f5-b59b-4dbe-85ac-7065f77a8d6d" fill="#000000" transform="matrix(0.7000827196983938,0,0,0.7000827196983938,109.68496418488738,58.52982743597396)"><path d="M1.75 4.65C1.75 4.03 2.11 3.08 4.21 3.08C5.91 3.08 6.69 3.82 6.80 4.75L7.88 4.75C7.80 3.36 6.68 2.10 4.21 2.10C1.89 2.10 0.73 3.15 0.73 4.66C0.73 7.84 7.07 6.69 7.07 8.96C7.07 10.05 6.09 10.60 4.52 10.60C2.91 10.60 1.61 10.05 1.54 8.71L0.45 8.71C0.59 10.37 1.71 11.59 4.45 11.59C6.73 11.59 8.12 10.64 8.12 8.92C8.12 5.68 1.75 6.80 1.75 4.65ZM17.79 2.21L16.74 2.21L16.74 11.48L17.79 11.48ZM34.86 2.21L31.60 6.61L28.28 2.21L27.06 2.21L27.06 11.48L28.11 11.48L28.11 3.81L31.60 8.22L35.03 3.81L35.03 11.48L36.08 11.48L36.08 2.21ZM46.40 8.18L49.52 8.18C51.49 8.18 52.71 7.03 52.71 5.19C52.71 3.37 51.49 2.21 49.52 2.21L45.35 2.21L45.35 11.48L46.40 11.48ZM49.45 3.21C50.90 3.21 51.66 3.96 51.66 5.19C51.66 6.44 50.90 7.20 49.45 7.20L46.40 7.20L46.40 3.21ZM61.14 2.21L61.14 11.48L67.24 11.48L67.24 10.47L62.19 10.47L62.19 2.21ZM82.42 3.22L82.42 2.21L75.60 2.21L75.60 11.48L82.42 11.48L82.42 10.47L76.65 10.47L76.65 7.35L81.80 7.35L81.80 6.33L76.65 6.33L76.65 3.22ZM90.13 13.34L91.08 13.34L92.32 10.36L90.94 10.36ZM117.87 3.22L117.87 2.21L111.17 2.21L111.17 11.48L112.22 11.48L112.22 7.46L117.25 7.46L117.25 6.44L112.22 6.44L112.22 3.22ZM127.39 7.92L130.61 7.92L132.85 11.48L134.09 11.48L131.66 7.74C132.69 7.50 133.90 6.90 133.90 5.11C133.90 3.35 132.68 2.21 130.77 2.21L126.34 2.21L126.34 11.48L127.39 11.48ZM127.39 3.21L130.65 3.21C131.96 3.21 132.85 3.93 132.85 5.11C132.85 6.55 131.59 6.93 130.59 6.93L127.39 6.93ZM149.52 3.22L149.52 2.21L142.70 2.21L142.70 11.48L149.52 11.48L149.52 10.47L143.75 10.47L143.75 7.35L148.90 7.35L148.90 6.33L143.75 6.33L143.75 3.22ZM165.03 3.22L165.03 2.21L158.21 2.21L158.21 11.48L165.03 11.48L165.03 10.47L159.26 10.47L159.26 7.35L164.42 7.35L164.42 6.33L159.26 6.33L159.26 3.22ZM187.87 2.21L186.55 2.21L182.62 11.48L183.78 11.48L184.91 8.79L189.50 8.79L190.64 11.48L191.80 11.48ZM185.32 7.83L187.21 3.30L189.10 7.83ZM206.92 2.21L206.92 10.01L201.19 2.21L199.98 2.21L199.98 11.48L201.03 11.48L201.03 3.65L206.75 11.48L207.97 11.48L207.97 2.21ZM221.14 2.21L217.24 2.21L217.24 11.48L221.14 11.48C223.36 11.48 225.40 9.74 225.40 6.85C225.40 3.95 223.36 2.21 221.14 2.21ZM221.10 10.49L218.29 10.49L218.29 3.21L221.10 3.21C223.08 3.21 224.35 4.86 224.35 6.85C224.35 8.83 223.08 10.49 221.10 10.49ZM248.19 2.10C245.38 2.10 243.49 4.21 243.49 6.85C243.49 9.48 245.38 11.59 248.19 11.59C251.01 11.59 252.90 9.48 252.90 6.85C252.90 4.21 251.01 2.10 248.19 2.10ZM248.19 10.57C245.94 10.57 244.54 8.93 244.54 6.85C244.54 4.76 245.94 3.12 248.19 3.12C250.45 3.12 251.85 4.76 251.85 6.85C251.85 8.93 250.45 10.57 248.19 10.57ZM262.63 8.18L265.75 8.18C267.72 8.18 268.94 7.03 268.94 5.19C268.94 3.37 267.72 2.21 265.75 2.21L261.58 2.21L261.58 11.48L262.63 11.48ZM265.68 3.21C267.13 3.21 267.89 3.96 267.89 5.19C267.89 6.44 267.13 7.20 265.68 7.20L262.63 7.20L262.63 3.21ZM284.19 3.22L284.19 2.21L277.37 2.21L277.37 11.48L284.19 11.48L284.19 10.47L278.42 10.47L278.42 7.35L283.57 7.35L283.57 6.33L278.42 6.33L278.42 3.22ZM299.82 2.21L299.82 10.01L294.10 2.21L292.88 2.21L292.88 11.48L293.93 11.48L293.93 3.65L299.66 11.48L300.87 11.48L300.87 2.21ZM310.76 4.65C310.76 4.03 311.12 3.08 313.22 3.08C314.92 3.08 315.70 3.82 315.81 4.75L316.89 4.75C316.81 3.36 315.69 2.10 313.22 2.10C310.90 2.10 309.74 3.15 309.74 4.66C309.74 7.84 316.08 6.69 316.08 8.96C316.08 10.05 315.10 10.60 313.53 10.60C311.92 10.60 310.62 10.05 310.55 8.71L309.46 8.71C309.60 10.37 310.72 11.59 313.46 11.59C315.74 11.59 317.13 10.64 317.13 8.92C317.13 5.68 310.76 6.80 310.76 4.65ZM329.87 2.10C327.05 2.10 325.16 4.21 325.16 6.85C325.16 9.48 327.05 11.59 329.87 11.59C332.68 11.59 334.57 9.48 334.57 6.85C334.57 4.21 332.68 2.10 329.87 2.10ZM329.87 10.57C327.61 10.57 326.21 8.93 326.21 6.85C326.21 4.76 327.61 3.12 329.87 3.12C332.12 3.12 333.52 4.76 333.52 6.85C333.52 8.93 332.12 10.57 329.87 10.57ZM349.97 2.21L349.97 7.52C349.97 9.67 348.54 10.57 347.07 10.57C345.60 10.57 344.19 9.67 344.19 7.52L344.19 2.21L343.14 2.21L343.14 7.49C343.14 9.95 344.76 11.59 347.07 11.59C349.40 11.59 351.02 9.94 351.02 7.49L351.02 2.21ZM361.23 7.92L364.45 7.92L366.69 11.48L367.93 11.48L365.50 7.74C366.53 7.50 367.74 6.90 367.74 5.11C367.74 3.35 366.52 2.21 364.62 2.21L360.18 2.21L360.18 11.48L361.23 11.48ZM361.23 3.21L364.49 3.21C365.81 3.21 366.69 3.93 366.69 5.11C366.69 6.55 365.43 6.93 364.43 6.93L361.23 6.93ZM380.52 10.57C378.27 10.57 377.01 8.93 377.01 6.85C377.01 4.76 378.27 3.12 380.52 3.12C382.05 3.12 383.05 3.85 383.53 4.98L384.64 4.98C384.05 3.29 382.54 2.10 380.44 2.10C377.65 2.10 375.96 4.21 375.96 6.85C375.96 9.48 377.65 11.59 380.44 11.59C382.54 11.59 384.05 10.40 384.64 8.71L383.53 8.71C383.05 9.84 382.05 10.57 380.52 10.57ZM400.02 3.22L400.02 2.21L393.20 2.21L393.20 11.48L400.02 11.48L400.02 10.47L394.25 10.47L394.25 7.35L399.41 7.35L399.41 6.33L394.25 6.33L394.25 3.22Z"></path></g></svg>